<svg xmlns="http://www.w3.org/2000/svg"
viewBox="0 0 1254 1254">

<rect width="1254" height="1254" fill="#2563eb"/>

<g transform="translate(0,1254) scale(0.1,-0.1)"
fill="white" stroke="none">

<path d="M0 6270 l0 -6270 6270 0 6270 0 0 6270 0 6270 -6270 0 -6270 0 0
-6270z m6895 4461 c49 -22 109 -86 123 -132 9 -29 58 -597 80 -932 l7 -99 115
-35 c210 -63 438 -160 614 -261 69 -40 81 -44 99 -33 11 7 110 90 221 185 308
264 488 411 523 430 33 16 104 21 164 10 28 -6 108 -80 447 -418 244 -242 422
-427 434 -451 14 -27 22 -60 22 -100 1 -70 -13 -98 -111 -222 -34 -43 -165
-208 -291 -368 l-229 -290 78 -150 c107 -207 187 -410 238 -611 l11 -41 57 -2
c32 -1 256 -17 497 -37 322 -26 447 -39 470 -51 44 -22 85 -62 107 -105 18
-35 19 -66 19 -645 0 -570 -2 -611 -19 -649 -21 -45 -80 -99 -126 -114 -28 -9
-627 -60 -893 -76 l-112 -7 -20 -71 c-61 -210 -147 -425 -249 -621 l-58 -113
41 -49 c23 -27 94 -115 158 -194 64 -79 182 -225 262 -324 185 -228 205 -281
146 -395 -10 -19 -205 -220 -432 -447 -437 -436 -434 -433 -526 -433 -73 0
-70 -2 -560 404 -150 124 -277 226 -282 226 -4 0 -77 -36 -162 -79 -204 -106
-385 -178 -623 -249 l-30 -9 -40 -489 c-45 -534 -42 -519 -112 -586 -60 -58
-63 -58 -690 -58 -632 0 -614 -2 -681 63 -67 64 -61 27 -122 753 -11 132 -20
259 -20 281 0 39 -2 41 -36 48 -44 8 -260 81 -366 124 -84 33 -307 144 -375
186 l-42 25 -202 -167 c-111 -93 -275 -228 -363 -301 -89 -74 -174 -141 -191
-150 -40 -22 -150 -22 -190 0 -42 22 -836 821 -856 861 -41 81 -28 179 34 252
32 38 84 102 372 460 71 88 146 179 166 203 l38 43 -59 112 c-103 195 -197 429
-244 607 l-23 85 -154 11 c-484 36 -818 65 -849 74 -47 13 -106 63 -130 111
-19 37 -20 61 -20 646 0 570 2 610 19 648 22 48 64 89 112 109 32 13 305 39
809 76 224 17 217 15 225 58 28 152 196 563 291 714 24 38 24 40 7 62 -51 66
-179 228 -374 471 -118 149 -221 286 -227 304 -17 47 -15 125 3 169 19 46 802
834 857 863 47 24 146 26 191 3 18 -9 64 -43 102 -75 39 -32 198 -165 355 -295
156 -130 290 -238 297 -241 7 -3 48 15 90 40 176 101 370 184 588 252 134 41
139 44 142 71 1 16 16 209 33 429 17 220 33 434 37 475 7 90 19 124 64 175 68
77 42 75 699 75 545 0 588 -2 625 -19z"/>

<path d="M6048 7955 c-318 -45 -622 -194 -856 -419 -270 -260 -413 -524 -489
-901 -26 -134 -24 -433 6 -569 57 -265 171 -506 331 -701 328 -399 792 -611
1295 -592 165 7 270 25 420 75 543 179 956 644 1071 1207 175 854 -385 1703
-1244 1885 -128 28 -397 35 -534 15z"/>

</g>
</svg>